<?xml version="1.0" standalone="no"?>
<!DOCTYPE svg PUBLIC "-//W3C//DTD SVG 20010904//EN"
 "http://www.w3.org/TR/2001/REC-SVG-20010904/DTD/svg10.dtd">
<svg version="1.0" xmlns="http://www.w3.org/2000/svg"
 width="200.000000pt" height="200.000000pt" viewBox="0 0 200.000000 200.000000"
 preserveAspectRatio="xMidYMid meet">
<metadata>
Created by potrace 1.15, written by Peter Selinger 2001-2017
</metadata>
<g transform="translate(0.000000,200.000000) scale(0.100000,-0.100000)"
fill="#000000" stroke="none">
<path d="M659 1647 c-58 -34 -122 -72 -142 -84 l-37 -22 0 -71 c0 -38 2 -70 5
-70 3 0 71 38 150 85 l144 84 138 -81 c76 -44 144 -83 151 -85 9 -4 12 13 12
66 0 62 -3 72 -22 84 -106 64 -272 157 -282 156 -6 0 -58 -28 -117 -62z"/>
<path d="M1250 1428 l0 -174 -145 -84 c-80 -46 -148 -86 -150 -90 -2 -3 23
-21 57 -39 51 -28 64 -32 84 -22 33 15 31 5 -3 -12 -25 -14 -33 -11 -171 69
-79 46 -146 84 -148 84 -2 0 -4 -33 -4 -72 l1 -73 140 -80 c78 -44 147 -81
154 -83 10 -2 152 75 283 155 19 12 22 22 22 83 0 39 -3 70 -8 70 -4 0 -16 -6
-27 -13 -38 -26 -135 -78 -135 -73 0 2 38 26 85 53 l85 48 0 180 0 180 -60 33
-60 33 0 -173z"/>
<path d="M635 1456 l-140 -82 -3 -180 -2 -179 60 -33 60 -33 0 173 0 173 150
85 c82 47 150 87 150 90 0 7 -115 70 -126 69 -5 0 -72 -38 -149 -83z"/>
<path d="M100 571 c0 -11 9 -23 20 -26 19 -6 20 -15 20 -145 0 -129 -1 -138
-20 -143 -12 -3 -20 -14 -20 -27 0 -22 2 -22 116 -18 l116 3 29 33 c36 40 40
97 9 130 -12 12 -26 22 -32 22 -6 0 -2 10 9 23 45 49 41 117 -10 148 -26 15
-51 19 -134 19 -95 0 -103 -1 -103 -19z"/>
<path d="M511 493 c-48 -25 -73 -63 -79 -121 -5 -62 11 -115 45 -142 57 -44
220 -11 193 40 -10 19 -13 19 -40 5 -59 -31 -130 -6 -130 45 0 19 7 20 90 20
l90 0 0 35 c0 45 -23 100 -47 113 -39 21 -87 23 -122 5z"/>
<path d="M773 498 c-42 -9 -43 -10 -43 -49 0 -35 3 -39 25 -39 18 0 25 5 25
19 0 36 61 43 84 9 30 -42 21 -55 -40 -61 -30 -3 -66 -13 -80 -21 -40 -27 -44
-94 -8 -130 20 -21 93 -21 122 0 20 14 23 14 28 0 4 -11 19 -16 50 -16 38 0
44 3 44 21 0 12 -8 23 -20 26 -18 5 -20 14 -20 94 0 113 -9 135 -57 148 -44
12 -52 12 -110 -1z"/>
<path d="M1106 500 c-59 -18 -96 -76 -96 -149 0 -52 14 -86 46 -116 22 -20 37
-25 83 -25 73 0 127 30 111 60 -13 24 -19 24 -44 5 -57 -43 -127 1 -128 78 -1
66 22 97 72 97 34 0 41 -4 46 -25 7 -27 44 -36 44 -11 0 7 3 27 6 44 6 29 5
30 -45 41 -58 12 -56 12 -95 1z"/>
<path d="M1376 500 c-15 -5 -37 -17 -48 -27 -64 -57 -62 -201 3 -247 30 -21
110 -21 150 0 36 18 69 83 69 134 0 43 -32 115 -57 128 -29 16 -85 22 -117 12z
m90 -75 c22 -34 15 -132 -11 -151 -54 -40 -108 2 -108 81 0 61 24 95 68 95 26
0 39 -6 51 -25z"/>
<path d="M1737 500 c-16 -5 -35 -14 -43 -21 -11 -9 -14 -8 -14 5 0 13 -11 16
-50 16 -43 0 -50 -3 -50 -20 0 -13 9 -22 25 -26 24 -6 25 -8 25 -99 0 -91 -1
-93 -25 -99 -16 -4 -25 -13 -25 -26 0 -18 7 -20 70 -20 64 0 70 2 70 20 0 11
-7 23 -15 26 -12 5 -15 24 -15 85 l0 79 36 17 c56 27 68 13 72 -87 2 -67 0
-85 -13 -92 -8 -5 -15 -18 -15 -28 0 -18 7 -20 65 -20 59 0 65 2 65 20 0 11
-7 23 -15 26 -11 5 -15 23 -15 78 0 77 -13 138 -33 154 -19 15 -69 21 -100 12z"/>
</g>
</svg>
