<?xml version="1.0" standalone="no"?>
<!DOCTYPE svg PUBLIC "-//W3C//DTD SVG 20010904//EN"
 "http://www.w3.org/TR/2001/REC-SVG-20010904/DTD/svg10.dtd">
<svg version="1.0" xmlns="http://www.w3.org/2000/svg"
 width="200.000000pt" height="200.000000pt" viewBox="0 0 200.000000 200.000000"
 preserveAspectRatio="xMidYMid meet">
<metadata>
Created by potrace 1.15, written by Peter Selinger 2001-2017
</metadata>
<g transform="translate(0.000000,200.000000) scale(0.100000,-0.100000)"
fill="#000000" stroke="none">
<path d="M143 593 c-35 -3 -43 -8 -43 -24 0 -12 7 -19 20 -19 19 0 20 -7 20
-141 0 -132 -1 -141 -20 -146 -11 -3 -20 -14 -20 -25 0 -19 6 -20 121 -16 118
3 121 4 145 31 35 41 33 100 -4 136 -28 25 -28 27 -10 41 11 9 22 33 25 56 4
33 1 45 -18 68 -35 40 -90 50 -216 39z"/>
<path d="M494 491 c-86 -52 -86 -224 1 -265 44 -21 91 -20 143 4 44 20 50 31
29 48 -9 8 -26 6 -60 -6 -45 -16 -47 -16 -74 4 -15 11 -30 32 -34 47 l-7 27
94 0 94 0 0 34 c0 52 -20 95 -51 111 -39 20 -98 19 -135 -4z"/>
<path d="M760 501 c-21 -6 -26 -14 -28 -49 -3 -37 -1 -42 18 -42 13 0 24 9 30
25 8 20 16 25 44 25 37 0 56 -20 56 -58 0 -17 -9 -20 -62 -24 -52 -4 -65 -9
-86 -33 -19 -23 -23 -36 -18 -64 10 -64 71 -89 136 -56 18 9 31 11 35 5 3 -6
26 -10 51 -10 36 0 44 3 44 19 0 10 -9 21 -20 24 -18 5 -20 14 -20 102 0 89
-2 98 -25 120 -20 21 -33 25 -77 24 -29 -1 -64 -4 -78 -8z"/>
<path d="M1074 491 c-64 -39 -86 -156 -41 -222 41 -61 106 -75 185 -39 39 18
42 22 32 40 -6 12 -17 19 -23 16 -62 -26 -87 -29 -111 -13 -53 35 -54 151 -1
175 43 20 72 15 79 -13 9 -37 42 -33 50 6 9 46 9 46 -25 58 -48 17 -110 13
-145 -8z"/>
<path d="M1344 492 c-59 -38 -83 -144 -48 -217 33 -70 145 -86 205 -29 58 55
63 167 10 226 -23 26 -37 32 -82 35 -41 3 -61 0 -85 -15z m115 -58 c31 -39 29
-117 -4 -149 -29 -30 -45 -31 -77 -5 -30 23 -41 74 -27 124 17 60 73 75 108
30z"/>
<path d="M1618 503 c-29 -3 -38 -9 -38 -23 0 -12 8 -20 23 -22 21 -3 22 -7 22
-98 0 -91 -1 -95 -22 -98 -15 -2 -23 -10 -23 -23 0 -17 8 -19 70 -19 63 0 70
2 70 20 0 11 -7 20 -15 20 -24 0 -21 151 3 172 26 23 51 29 73 18 17 -9 19
-22 19 -100 0 -73 -3 -90 -15 -90 -8 0 -15 -9 -15 -20 0 -18 7 -20 65 -20 58
0 65 2 65 20 0 11 -6 20 -14 20 -10 0 -15 25 -18 100 -4 88 -8 104 -28 125
-27 29 -79 33 -124 10 -35 -18 -36 -18 -36 0 0 8 -6 14 -12 13 -7 -1 -30 -3
-50 -5z"/>
</g>
</svg>
