<?xml version="1.0" standalone="no"?>
<!DOCTYPE svg PUBLIC "-//W3C//DTD SVG 20010904//EN"
 "http://www.w3.org/TR/2001/REC-SVG-20010904/DTD/svg10.dtd">
<svg version="1.0" xmlns="http://www.w3.org/2000/svg"
 width="200.000000pt" height="200.000000pt" viewBox="0 0 200.000000 200.000000"
 preserveAspectRatio="xMidYMid meet">
<metadata>
Created by potrace 1.15, written by Peter Selinger 2001-2017
</metadata>
<g transform="translate(0.000000,200.000000) scale(0.100000,-0.100000)"
fill="#000000" stroke="none">
<path d="M648 1652 l-148 -87 0 -73 c0 -40 3 -71 8 -69 4 2 71 41 150 86 l142
81 143 -81 c78 -45 145 -84 150 -86 4 -2 7 29 7 69 l0 74 -147 84 c-80 47
-149 86 -152 87 -3 0 -72 -38 -153 -85z"/>
<path d="M1270 1448 l0 -173 -129 -73 c-71 -40 -137 -79 -147 -87 -19 -13 -18
-14 0 -28 11 -8 38 -24 60 -37 l41 -22 153 88 152 89 -2 174 -3 175 -55 33
c-30 18 -58 33 -62 33 -5 0 -8 -78 -8 -172z"/>
<path d="M100 545 c0 -18 5 -25 20 -25 19 0 20 -7 20 -139 0 -131 -1 -140 -20
-146 -11 -3 -20 -15 -20 -26 0 -18 8 -19 105 -19 146 0 185 23 185 109 0 33
-34 81 -58 82 -13 0 -12 3 4 11 42 20 55 78 29 128 -19 37 -64 50 -177 50 -87
0 -88 0 -88 -25z"/>
<path d="M486 458 c-57 -42 -75 -152 -36 -216 38 -62 129 -77 202 -34 31 18
32 20 19 41 -8 12 -14 12 -39 2 -49 -20 -93 -17 -114 9 -10 12 -18 31 -18 41
0 17 8 19 90 19 l90 0 0 35 c0 46 -23 101 -48 114 -35 19 -114 13 -146 -11z"/>
<path d="M753 470 c-18 -7 -23 -17 -23 -45 0 -31 3 -35 25 -35 18 0 25 5 25
20 0 17 7 20 40 20 42 0 60 -18 60 -59 0 -18 -6 -21 -50 -21 -63 0 -96 -15
-110 -51 -12 -29 -7 -74 12 -96 17 -21 72 -26 111 -9 22 9 39 11 42 5 4 -5 26
-9 51 -9 37 0 44 3 44 19 0 11 -9 23 -20 26 -18 6 -20 15 -20 101 0 87 -2 97
-25 119 -20 21 -33 25 -82 24 -32 0 -68 -4 -80 -9z"/>
<path d="M1072 460 c-77 -48 -84 -203 -11 -254 47 -33 134 -29 182 8 15 12 16
17 6 34 -12 18 -15 19 -36 5 -28 -19 -86 -21 -107 -4 -25 21 -37 80 -25 123
11 42 33 58 78 58 24 0 32 -5 37 -25 10 -39 40 -32 49 11 9 49 -3 57 -78 62
-50 2 -69 -1 -95 -18z"/>
<path d="M1342 460 c-45 -28 -65 -79 -60 -152 3 -47 10 -64 33 -88 54 -57 159
-47 207 20 45 63 28 188 -31 223 -40 23 -108 22 -149 -3z m113 -44 c28 -20 34
-123 8 -155 -38 -47 -105 -21 -116 44 -15 91 47 156 108 111z"/>
<path d="M1584 465 c-8 -20 4 -35 27 -35 17 0 19 -8 19 -95 0 -93 -1 -95 -25
-101 -16 -4 -25 -13 -25 -25 0 -17 8 -19 70 -19 62 0 70 2 70 19 0 10 -7 21
-15 25 -11 4 -15 23 -15 80 0 69 2 76 26 95 30 24 54 27 72 9 19 -19 16 -177
-3 -184 -8 -4 -15 -15 -15 -25 0 -17 8 -19 65 -19 57 0 65 2 65 19 0 10 -7 21
-15 25 -11 4 -15 22 -15 73 -1 85 -14 144 -36 160 -24 18 -89 16 -124 -2 -27
-14 -30 -14 -30 0 0 21 -88 21 -96 0z"/>
</g>
</svg>
