<?xml version="1.0" standalone="no"?>
<!DOCTYPE svg PUBLIC "-//W3C//DTD SVG 20010904//EN"
 "http://www.w3.org/TR/2001/REC-SVG-20010904/DTD/svg10.dtd">
<svg version="1.0" xmlns="http://www.w3.org/2000/svg"
 width="200.000000pt" height="200.000000pt" viewBox="0 0 200.000000 200.000000"
 preserveAspectRatio="xMidYMid meet">
<metadata>
Created by potrace 1.15, written by Peter Selinger 2001-2017
</metadata>
<g transform="translate(0.000000,200.000000) scale(0.100000,-0.100000)"
fill="#000000" stroke="none">
<path d="M668 1614 l-148 -86 0 -69 c0 -38 3 -69 8 -69 4 0 70 36 146 80 77
44 144 80 149 80 6 0 72 -36 148 -80 76 -44 141 -80 144 -80 3 0 5 32 3 72
l-3 72 -140 83 c-77 45 -144 82 -150 82 -5 0 -76 -38 -157 -85z"/>
<path d="M678 1443 l-148 -86 0 -176 0 -176 59 -32 c33 -18 62 -33 65 -33 3 0
6 78 6 173 l0 174 145 82 c80 45 145 85 145 89 0 6 -114 73 -122 71 -2 0 -69
-39 -150 -86z"/>
<path d="M812 1078 l3 -73 140 -82 c77 -45 147 -82 154 -82 8 -1 79 36 158 81
l143 82 0 74 c0 40 -3 71 -7 69 -78 -44 -235 -134 -259 -148 l-30 -18 -147 84
c-81 47 -150 85 -153 85 -3 0 -4 -33 -2 -72z"/>
<path d="M100 581 c0 -11 9 -23 20 -26 19 -6 20 -15 20 -146 0 -132 -1 -139
-20 -139 -15 0 -20 -7 -20 -25 0 -25 1 -25 88 -25 106 0 155 13 182 47 29 38
27 97 -6 130 -24 24 -25 26 -7 45 12 13 18 36 18 65 0 37 -5 49 -28 69 -26 22
-36 24 -138 24 -101 0 -109 -1 -109 -19z"/>
<path d="M520 512 c-79 -37 -113 -138 -76 -227 25 -59 113 -83 190 -51 41 17
52 32 36 51 -9 11 -16 11 -45 -1 -19 -8 -46 -14 -59 -14 -29 0 -62 31 -69 66
l-4 24 95 0 95 0 -5 51 c-7 66 -38 100 -99 105 -24 2 -51 0 -59 -4z"/>
<path d="M795 515 c-5 -2 -22 -6 -37 -9 -25 -6 -28 -11 -28 -46 0 -36 3 -40
25 -40 18 0 25 5 25 19 0 19 19 31 48 31 28 0 41 -14 48 -48 6 -32 6 -32 -35
-32 -108 0 -165 -74 -110 -144 16 -21 29 -26 63 -26 23 0 51 7 63 15 20 14 23
14 31 -1 6 -11 20 -14 48 -12 32 2 40 7 42 26 3 17 -2 22 -17 22 -20 0 -21 6
-21 96 0 52 -4 104 -10 114 -15 28 -93 49 -135 35z"/>
<path d="M1090 502 c-51 -25 -80 -74 -80 -134 0 -96 46 -148 130 -148 41 0
103 20 113 38 4 5 1 17 -6 26 -12 16 -15 16 -42 2 -72 -38 -127 -2 -128 83 -1
53 12 77 51 92 32 12 59 3 67 -22 11 -34 42 -23 50 17 8 43 7 43 -42 55 -55
12 -74 11 -113 -9z"/>
<path d="M1349 499 c-44 -26 -69 -74 -69 -135 0 -94 46 -144 132 -144 90 0
148 77 134 177 -8 59 -29 91 -71 109 -47 19 -84 17 -126 -7z m116 -62 c18 -26
20 -96 3 -132 -14 -30 -50 -42 -83 -27 -41 19 -54 119 -21 161 26 34 77 33
101 -2z"/>
<path d="M1718 502 c-30 -16 -38 -17 -38 -6 0 10 -14 14 -50 14 -42 0 -50 -3
-50 -19 0 -12 9 -21 25 -25 24 -6 25 -8 25 -100 0 -90 -1 -95 -22 -98 -15 -2
-24 -11 -26 -25 -3 -22 0 -23 67 -23 65 0 71 2 71 20 0 11 -7 23 -15 26 -12 5
-15 24 -15 85 0 69 2 80 22 93 29 21 74 21 82 0 3 -9 6 -51 6 -94 0 -60 -3
-79 -15 -84 -8 -3 -15 -15 -15 -26 0 -18 6 -20 65 -20 58 0 65 2 65 20 0 10
-6 23 -14 27 -9 6 -15 38 -18 106 -4 80 -9 102 -25 118 -29 29 -81 34 -125 11z"/>
</g>
</svg>
