<?xml version="1.0" standalone="no"?>
<!DOCTYPE svg PUBLIC "-//W3C//DTD SVG 20010904//EN"
 "http://www.w3.org/TR/2001/REC-SVG-20010904/DTD/svg10.dtd">
<svg version="1.0" xmlns="http://www.w3.org/2000/svg"
 width="200.000000pt" height="200.000000pt" viewBox="0 0 200.000000 200.000000"
 preserveAspectRatio="xMidYMid meet">
<metadata>
Created by potrace 1.15, written by Peter Selinger 2001-2017
</metadata>
<g transform="translate(0.000000,200.000000) scale(0.100000,-0.100000)"
fill="#000000" stroke="none">
<path d="M1270 1452 l0 -169 -102 -60 c-57 -33 -124 -72 -151 -87 -26 -15 -45
-31 -42 -36 3 -5 30 -22 61 -39 l55 -30 62 37 c34 20 69 41 79 47 9 5 48 28
87 50 l71 39 0 177 0 177 -55 31 c-30 17 -57 31 -60 31 -3 0 -5 -76 -5 -168z"/>
<path d="M690 1503 c-63 -36 -132 -75 -152 -87 l-38 -21 0 -175 0 -176 56 -32
c31 -18 60 -32 65 -32 5 0 9 74 9 169 0 140 3 171 16 181 13 12 160 96 236
137 42 22 42 30 1 56 -78 49 -68 50 -193 -20z"/>
<path d="M148 563 c-38 -3 -48 -8 -48 -22 0 -10 9 -21 20 -24 19 -5 20 -14 20
-142 0 -128 -1 -137 -20 -142 -11 -3 -20 -14 -20 -25 0 -19 6 -20 121 -16 118
3 121 4 145 31 35 41 33 100 -5 136 -28 26 -28 28 -11 39 24 15 36 76 22 107
-6 13 -21 31 -34 39 -26 16 -117 26 -190 19z"/>
<path d="M494 461 c-86 -52 -86 -224 1 -265 44 -21 91 -20 143 4 44 20 50 31
29 48 -9 8 -26 6 -60 -6 -45 -16 -47 -16 -74 4 -15 11 -30 32 -34 47 l-7 27
94 0 94 0 0 36 c0 48 -25 99 -56 113 -37 17 -95 13 -130 -8z"/>
<path d="M758 468 c-24 -8 -28 -15 -28 -49 0 -32 3 -39 20 -39 13 0 24 10 30
25 8 20 16 25 44 25 37 0 56 -20 56 -58 0 -17 -9 -20 -62 -24 -52 -4 -65 -9
-86 -33 -19 -23 -23 -36 -18 -64 10 -64 71 -89 136 -56 18 9 31 11 35 5 3 -6
26 -10 51 -10 36 0 44 3 44 19 0 10 -9 21 -20 24 -18 5 -20 14 -20 102 0 89
-2 98 -25 120 -20 21 -34 25 -77 24 -29 0 -65 -5 -80 -11z"/>
<path d="M1081 462 c-94 -48 -95 -222 -1 -269 36 -18 89 -15 138 7 39 18 42
22 32 40 -6 12 -17 19 -23 16 -62 -26 -87 -29 -111 -13 -29 19 -48 76 -39 118
12 61 93 92 115 44 16 -36 44 -32 52 6 9 46 9 46 -25 58 -46 16 -99 13 -138
-7z"/>
<path d="M1344 462 c-88 -56 -85 -232 5 -269 51 -22 115 -12 152 23 58 55 63
167 10 226 -23 26 -37 32 -82 35 -41 3 -61 0 -85 -15z m111 -57 c36 -35 36
-115 0 -150 -42 -43 -88 -27 -105 35 -14 53 2 117 33 130 35 14 46 12 72 -15z"/>
<path d="M1715 464 c-19 -10 -31 -11 -33 -5 -2 6 -26 11 -53 11 -42 0 -49 -3
-49 -19 0 -13 8 -21 23 -23 21 -3 22 -8 25 -96 3 -91 2 -92 -23 -102 -14 -5
-25 -16 -25 -25 0 -12 14 -15 70 -15 63 0 70 2 70 20 0 11 -7 20 -15 20 -24 0
-21 151 3 172 26 23 51 29 73 18 17 -9 19 -22 19 -100 0 -73 -3 -90 -15 -90
-8 0 -15 -9 -15 -20 0 -18 7 -20 65 -20 58 0 65 2 65 20 0 11 -6 20 -14 20
-10 0 -15 25 -18 102 -5 95 -7 103 -32 125 -32 27 -78 30 -121 7z"/>
</g>
</svg>
